<svg width="37" height="16" viewBox="0 0 37 16" fill="none" xmlns="http://www.w3.org/2000/svg">
<path d="M21.4626 6.05662C21.1789 5.767 20.8187 5.62134 20.3806 5.62134C19.7367 5.62134 19.2668 5.93053 18.9712 6.54805C18.3399 5.80634 17.477 5.43591 16.3831 5.43591C15.0698 5.43591 13.9649 5.94286 13.0701 6.9559C12.1757 7.96915 11.7285 9.20526 11.7285 10.6634C11.7285 12.1215 12.1757 13.3572 13.0701 14.3708C13.9649 15.3843 15.0698 15.8906 16.3831 15.8906C17.477 15.8906 18.3399 15.5202 18.9712 14.778C19.2668 15.3964 19.7367 15.705 20.3806 15.705C20.8187 15.705 21.1789 15.5602 21.4626 15.2695C21.7456 14.9798 21.887 14.6243 21.887 14.2037V7.12261C21.887 6.70264 21.7456 6.34731 21.4626 6.05662ZM18.3241 12.4192C17.9569 12.8923 17.451 13.1286 16.8078 13.1286C16.1634 13.1286 15.6584 12.8923 15.2916 12.4192C14.925 11.9454 14.7413 11.3604 14.7413 10.6632C14.7413 9.96632 14.925 9.38112 15.2916 8.90756C15.6584 8.43442 16.1634 8.19796 16.8078 8.19796C17.451 8.19796 17.9569 8.43442 18.3241 8.90756C18.6912 9.38112 18.8747 9.96632 18.8747 10.6632C18.8747 11.3602 18.6912 11.9454 18.3241 12.4192Z" fill="white"/>
<path d="M25.2934 15.2695C25.0099 15.5602 24.6491 15.7048 24.2121 15.7048C23.7738 15.7048 23.4132 15.5602 23.1302 15.2695C22.8465 14.9794 22.7051 14.6237 22.7051 14.2035V1.53155C22.7051 1.11157 22.8465 0.755818 23.1302 0.465558C23.4132 0.175085 23.7738 0.0302734 24.2121 0.0302734C24.6491 0.0302734 25.0099 0.175085 25.2934 0.465558C25.5766 0.755818 25.718 1.11157 25.718 1.53155V14.2037C25.718 14.6237 25.5766 14.9794 25.2934 15.2695Z" fill="white"/>
<path d="M35.2782 6.9559C34.3128 5.94286 33.083 5.43591 31.589 5.43591C30.0954 5.43591 28.8761 5.93648 27.9298 6.9374C26.9829 7.93832 26.5098 9.18017 26.5098 10.6632C26.5098 12.1459 26.9829 13.3878 27.9298 14.3889C28.8761 15.3898 30.0954 15.8906 31.589 15.8906C33.083 15.8906 34.3128 15.3841 35.2782 14.3708C36.2053 13.3818 36.6689 12.1461 36.6689 10.6634C36.6689 9.18017 36.2055 7.9447 35.2782 6.9559ZM33.1056 12.4192C32.7384 12.8923 32.2329 13.1286 31.589 13.1286C30.9449 13.1286 30.4399 12.8923 30.0733 12.4192C29.706 11.9454 29.5225 11.3604 29.5225 10.6632C29.5225 9.96632 29.706 9.38112 30.0733 8.90756C30.4399 8.43442 30.9449 8.19796 31.589 8.19796C32.2329 8.19796 32.7384 8.43442 33.1056 8.90756C33.4726 9.38112 33.6555 9.96632 33.6555 10.6632C33.6555 11.3602 33.4728 11.9454 33.1056 12.4192Z" fill="white"/>
<path d="M10.0592 5.78695C11.1233 4.41369 11.656 3.48847 11.656 3.01236C11.656 1.91086 10.9628 1.36011 9.5761 1.36011H2.2626C1.68803 1.36011 1.2436 1.49599 0.928252 1.76732C0.613325 2.0393 0.455542 2.39186 0.455542 2.82608C0.455542 3.26094 0.613325 3.61393 0.928252 3.88548C1.2436 4.15703 1.68803 4.2927 2.2626 4.2927H7.28549L0.854889 12.6014C0.434703 13.1451 0.224609 13.627 0.224609 14.048C0.224609 15.2558 1.0233 15.8599 2.62006 15.8599H10.1641C11.3693 15.8599 11.9715 15.3541 11.9715 14.3423C11.9715 13.331 11.3693 12.8251 10.1641 12.8251H4.61658L10.0592 5.78695Z" fill="white"/>
</svg>
