<svg width="38" height="39" viewBox="0 0 38 39" fill="none" xmlns="http://www.w3.org/2000/svg">
<rect width="38" height="39" rx="19" fill="#31A8FF"/>
<path d="M21.3412 18.5949C21.1423 18.3918 20.8897 18.2897 20.5826 18.2897C20.1311 18.2897 19.8015 18.5065 19.5943 18.9395C19.1516 18.4194 18.5465 18.1597 17.7795 18.1597C16.8586 18.1597 16.0838 18.5151 15.4564 19.2255C14.8292 19.936 14.5156 20.8028 14.5156 21.8252C14.5156 22.8477 14.8292 23.7141 15.4564 24.4249C16.0838 25.1356 16.8586 25.4906 17.7795 25.4906C18.5465 25.4906 19.1516 25.2309 19.5943 24.7105C19.8015 25.1441 20.1311 25.3604 20.5826 25.3604C20.8897 25.3604 21.1423 25.2589 21.3412 25.0551C21.5397 24.852 21.6389 24.6027 21.6389 24.3077V19.3424C21.6389 19.0479 21.5397 18.7987 21.3412 18.5949ZM19.1405 23.0564C18.883 23.3882 18.5283 23.5538 18.0772 23.5538C17.6254 23.5538 17.2713 23.3882 17.0141 23.0564C16.757 22.7242 16.6282 22.314 16.6282 21.8251C16.6282 21.3364 16.757 20.9261 17.0141 20.594C17.2713 20.2623 17.6254 20.0964 18.0772 20.0964C18.5283 20.0964 18.883 20.2623 19.1405 20.594C19.3979 20.9261 19.5266 21.3364 19.5266 21.8251C19.5266 22.3138 19.3979 22.7242 19.1405 23.0564Z" fill="white"/>
<path d="M24.0259 25.0555C23.8271 25.2593 23.5741 25.3607 23.2677 25.3607C22.9604 25.3607 22.7075 25.2593 22.509 25.0555C22.3101 24.8521 22.2109 24.6027 22.2109 24.308V15.4223C22.2109 15.1278 22.3101 14.8784 22.509 14.6749C22.7075 14.4712 22.9604 14.3696 23.2677 14.3696C23.5741 14.3696 23.8271 14.4712 24.0259 14.6749C24.2245 14.8784 24.3237 15.1278 24.3237 15.4223V24.3082C24.3237 24.6027 24.2245 24.8521 24.0259 25.0555Z" fill="white"/>
<path d="M31.0235 19.2257C30.3465 18.5153 29.4843 18.1599 28.4366 18.1599C27.3893 18.1599 26.5343 18.5109 25.8707 19.2127C25.2068 19.9146 24.875 20.7854 24.875 21.8252C24.875 22.865 25.2068 23.7358 25.8707 24.4378C26.5343 25.1396 27.3893 25.4908 28.4366 25.4908C29.4843 25.4908 30.3465 25.1356 31.0235 24.4251C31.6736 23.7316 31.9987 22.8651 31.9987 21.8254C31.9987 20.7854 31.6738 19.919 31.0235 19.2257ZM29.5001 23.0566C29.2425 23.3884 28.8881 23.554 28.4366 23.554C27.985 23.554 27.6308 23.3884 27.3738 23.0566C27.1163 22.7244 26.9876 22.3142 26.9876 21.8252C26.9876 21.3366 27.1163 20.9263 27.3738 20.5942C27.6308 20.2624 27.985 20.0966 28.4366 20.0966C28.8881 20.0966 29.2425 20.2624 29.5001 20.5942C29.7574 20.9263 29.8857 21.3366 29.8857 21.8252C29.8857 22.314 29.7576 22.7244 29.5001 23.0566Z" fill="white"/>
<path d="M13.3414 18.4065C14.0876 17.4435 14.4611 16.7947 14.4611 16.4609C14.4611 15.6885 13.975 15.3023 13.0027 15.3023H7.87437C7.47148 15.3023 7.15984 15.3976 6.93871 15.5879C6.71788 15.7786 6.60724 16.0258 6.60724 16.3303C6.60724 16.6352 6.71788 16.8827 6.93871 17.0731C7.15984 17.2635 7.47148 17.3587 7.87437 17.3587H11.3965L6.88727 23.1848C6.59263 23.5661 6.44531 23.904 6.44531 24.1992C6.44531 25.0461 7.00537 25.4697 8.12502 25.4697H13.415C14.2601 25.4697 14.6824 25.115 14.6824 24.4056C14.6824 23.6964 14.2601 23.3417 13.415 23.3417H9.52501L13.3414 18.4065Z" fill="white"/>
</svg>
