<svg width="21" height="21" viewBox="0 0 21 21" fill="none" xmlns="http://www.w3.org/2000/svg">
<path d="M10.4245 1.30304C8.52445 1.30529 6.70289 2.06108 5.35937 3.4046C4.01585 4.74812 3.26007 6.56968 3.25781 8.46971C3.25781 14.6018 9.77296 19.2337 10.0504 19.4278C10.1601 19.5044 10.2907 19.5455 10.4245 19.5455C10.5583 19.5455 10.6889 19.5044 10.7986 19.4278C11.076 19.2337 17.5911 14.6018 17.5911 8.46971C17.5889 6.56968 16.8331 4.74812 15.4896 3.4046C14.1461 2.06107 12.3245 1.30529 10.4245 1.30304ZM10.425 5.86388C10.9404 5.86388 11.4442 6.01672 11.8728 6.30308C12.3014 6.58944 12.6354 6.99645 12.8326 7.47265C13.0299 7.94884 13.0815 8.47283 12.9809 8.97836C12.8804 9.48389 12.6322 9.94824 12.2677 10.3127C11.9033 10.6772 11.4389 10.9254 10.9334 11.0259C10.4278 11.1265 9.90385 11.0749 9.42766 10.8776C8.95146 10.6804 8.54445 10.3464 8.2581 9.91779C7.97174 9.48923 7.8189 8.98537 7.8189 8.46994C7.81889 8.12771 7.88629 7.78882 8.01725 7.47263C8.14821 7.15645 8.34017 6.86915 8.58217 6.62716C8.82417 6.38516 9.11146 6.1932 9.42765 6.06224C9.74383 5.93127 10.0827 5.86387 10.425 5.86388Z" fill="#F26A23"/>
</svg>
