<svg width="21" height="21" viewBox="0 0 21 21" fill="none" xmlns="http://www.w3.org/2000/svg">
<path d="M18.0806 12.9022L14.2661 11.2675C14.0669 11.1817 13.8495 11.1472 13.6336 11.1671C13.4177 11.1869 13.2102 11.2605 13.03 11.3811L10.9905 12.7405C9.744 12.1343 8.73514 11.1299 8.12339 9.88611L8.12355 9.88595L9.47828 7.81593C9.5962 7.63622 9.66774 7.43009 9.68651 7.21597C9.70527 7.00184 9.67067 6.78641 9.5858 6.58893L7.94954 2.77122C7.83816 2.51208 7.64583 2.29598 7.40136 2.15529C7.15688 2.0146 6.87341 1.95689 6.59338 1.99079C5.49303 2.13227 4.48181 2.66949 3.74864 3.50212C3.01547 4.33474 2.6105 5.4058 2.60938 6.51521C2.60938 12.9817 7.87017 18.2425 14.3366 18.2425C15.4461 18.2414 16.5171 17.8364 17.3498 17.1032C18.1824 16.37 18.7196 15.3588 18.8611 14.2584C18.8949 13.9784 18.8371 13.6949 18.6964 13.4505C18.5557 13.206 18.3397 13.0137 18.0806 12.9022Z" fill="#F26A23"/>
</svg>
