<svg width="271" height="59" viewBox="0 0 271 59" fill="none" xmlns="http://www.w3.org/2000/svg">
<path d="M225.962 39.3594L230.022 47.2119L234.094 39.3594H236.446L231.054 49.1562V55H228.98V49.1562L223.588 39.3594H225.962Z" fill="#F36B24"/>
<path d="M218.69 40.7451L213.513 55H211.396L217.358 39.3594H218.723L218.69 40.7451ZM223.03 55L217.842 40.7451L217.81 39.3594H219.174L225.157 55H223.03ZM222.762 49.21V50.9072H213.975V49.21H222.762ZM218.905 35.1592L221.569 38.0918V38.1992H219.915L218.304 36.3838L216.703 38.1992H215.07V38.0811L217.702 35.1592H218.905Z" fill="#F36B24"/>
<path d="M7 47H29.234" stroke="#F26522" stroke-miterlimit="10"/>
<path d="M243 47H265.234" stroke="#F26522" stroke-miterlimit="10"/>
<path d="M209.937 39.3594V55H207.863V39.3594H209.937Z" fill="#F36B24"/>
<path d="M205.275 47.2119V52.9375C205.082 53.224 204.774 53.5462 204.352 53.9043C203.929 54.2552 203.345 54.5632 202.601 54.8281C201.863 55.0859 200.91 55.2148 199.743 55.2148C198.791 55.2148 197.913 55.0501 197.111 54.7207C196.316 54.3841 195.625 53.8971 195.038 53.2598C194.458 52.6152 194.007 51.8346 193.685 50.918C193.369 49.9941 193.212 48.9486 193.212 47.7812V46.5674C193.212 45.4001 193.348 44.3581 193.62 43.4414C193.899 42.5247 194.308 41.7477 194.845 41.1104C195.382 40.4658 196.041 39.9788 196.821 39.6494C197.602 39.3128 198.497 39.1445 199.507 39.1445C200.703 39.1445 201.702 39.3522 202.504 39.7676C203.313 40.1758 203.943 40.7415 204.395 41.4648C204.853 42.1882 205.146 43.0117 205.275 43.9355H203.202C203.109 43.3698 202.923 42.8542 202.644 42.3887C202.371 41.9232 201.981 41.5508 201.473 41.2715C200.964 40.985 200.309 40.8418 199.507 40.8418C198.784 40.8418 198.157 40.9743 197.627 41.2393C197.097 41.5042 196.66 41.8838 196.316 42.3779C195.973 42.8721 195.715 43.4701 195.543 44.1719C195.378 44.8737 195.296 45.665 195.296 46.5459V47.7812C195.296 48.6836 195.4 49.4893 195.607 50.1982C195.822 50.9072 196.127 51.5124 196.521 52.0137C196.914 52.5078 197.383 52.8838 197.928 53.1416C198.479 53.3994 199.088 53.5283 199.754 53.5283C200.492 53.5283 201.09 53.4674 201.548 53.3457C202.006 53.2168 202.364 53.0664 202.622 52.8945C202.88 52.7155 203.077 52.5472 203.213 52.3896V48.8877H199.593V47.2119H205.275Z" fill="#F36B24"/>
<path d="M184.942 39.3594H187.005V49.9404C187.005 51.1149 186.743 52.0924 186.221 52.873C185.698 53.6536 185.003 54.2409 184.137 54.6348C183.277 55.0215 182.343 55.2148 181.333 55.2148C180.273 55.2148 179.313 55.0215 178.454 54.6348C177.602 54.2409 176.925 53.6536 176.424 52.873C175.93 52.0924 175.683 51.1149 175.683 49.9404V39.3594H177.734V49.9404C177.734 50.7568 177.885 51.43 178.186 51.96C178.486 52.4899 178.905 52.8838 179.442 53.1416C179.987 53.3994 180.617 53.5283 181.333 53.5283C182.056 53.5283 182.687 53.3994 183.224 53.1416C183.768 52.8838 184.19 52.4899 184.491 51.96C184.792 51.43 184.942 50.7568 184.942 49.9404V39.3594Z" fill="#F36B24"/>
<path d="M168.626 40.7451L163.448 55H161.332L167.294 39.3594H168.658L168.626 40.7451ZM172.966 55L167.777 40.7451L167.745 39.3594H169.109L175.093 55H172.966ZM172.697 49.21V50.9072H163.91V49.21H172.697ZM169.023 35.5459L172.16 38.3711H170.033L168.207 36.6631L166.392 38.3711H164.275L167.391 35.5459H169.023ZM163.545 33.6875L165.07 36.459H163.556L161.396 33.6875H163.545Z" fill="#F36B24"/>
<path d="M153.867 55H150.602L150.623 53.3135H153.867C154.984 53.3135 155.915 53.0807 156.66 52.6152C157.405 52.1426 157.964 51.4837 158.336 50.6387C158.715 49.7865 158.905 48.791 158.905 47.6523V46.6963C158.905 45.8011 158.798 45.0062 158.583 44.3115C158.368 43.6097 158.053 43.0189 157.638 42.5391C157.222 42.0521 156.714 41.6833 156.112 41.4326C155.518 41.182 154.834 41.0566 154.061 41.0566H150.537V39.3594H154.061C155.085 39.3594 156.019 39.5312 156.864 39.875C157.709 40.2116 158.436 40.7021 159.045 41.3467C159.661 41.984 160.133 42.7575 160.463 43.667C160.792 44.5693 160.957 45.5863 160.957 46.7178V47.6523C160.957 48.7839 160.792 49.8044 160.463 50.7139C160.133 51.6162 159.657 52.3861 159.034 53.0234C158.418 53.6608 157.674 54.1514 156.8 54.4951C155.933 54.8317 154.956 55 153.867 55ZM151.708 39.3594V55H149.635V39.3594H151.708Z" fill="#F36B24"/>
<path d="M142.407 39.3594V55H140.334V39.3594H142.407ZM140.13 57.5459C140.13 57.2236 140.227 56.9515 140.42 56.7295C140.62 56.5075 140.914 56.3965 141.301 56.3965C141.68 56.3965 141.97 56.5075 142.171 56.7295C142.379 56.9515 142.482 57.2236 142.482 57.5459C142.482 57.8538 142.379 58.1152 142.171 58.3301C141.97 58.5521 141.68 58.6631 141.301 58.6631C140.914 58.6631 140.62 58.5521 140.42 58.3301C140.227 58.1152 140.13 57.8538 140.13 57.5459Z" fill="#F36B24"/>
<path d="M135.694 46.084V47.7705H127.229V46.084H135.694ZM127.552 39.3594V55H125.479V39.3594H127.552ZM137.499 39.3594V55H135.437V39.3594H137.499Z" fill="#F36B24"/>
<path d="M119.131 39.3594V55H117.09V39.3594H119.131ZM124.158 39.3594V41.0566H112.073V39.3594H124.158Z" fill="#F36B24"/>
<path d="M107.22 46.6855V47.6738C107.22 48.8483 107.073 49.901 106.779 50.832C106.486 51.763 106.063 52.5544 105.512 53.2061C104.96 53.8577 104.298 54.3555 103.524 54.6992C102.758 55.043 101.899 55.2148 100.946 55.2148C100.022 55.2148 99.1738 55.043 98.4004 54.6992C97.6341 54.3555 96.9681 53.8577 96.4023 53.2061C95.8438 52.5544 95.4105 51.763 95.1025 50.832C94.7946 49.901 94.6406 48.8483 94.6406 47.6738V46.6855C94.6406 45.5111 94.791 44.4619 95.0918 43.5381C95.3997 42.6071 95.833 41.8158 96.3916 41.1641C96.9502 40.5052 97.6126 40.0039 98.3789 39.6602C99.1523 39.3164 100.001 39.1445 100.925 39.1445C101.877 39.1445 102.737 39.3164 103.503 39.6602C104.276 40.0039 104.939 40.5052 105.49 41.1641C106.049 41.8158 106.475 42.6071 106.769 43.5381C107.069 44.4619 107.22 45.5111 107.22 46.6855ZM105.168 47.6738V46.6641C105.168 45.7331 105.071 44.9095 104.878 44.1934C104.692 43.4772 104.416 42.8757 104.051 42.3887C103.686 41.9017 103.238 41.5329 102.708 41.2822C102.185 41.0316 101.591 40.9062 100.925 40.9062C100.28 40.9062 99.6966 41.0316 99.1738 41.2822C98.6582 41.5329 98.2142 41.9017 97.8418 42.3887C97.4766 42.8757 97.1937 43.4772 96.9932 44.1934C96.7926 44.9095 96.6924 45.7331 96.6924 46.6641V47.6738C96.6924 48.612 96.7926 49.4427 96.9932 50.166C97.1937 50.8822 97.4801 51.4873 97.8525 51.9814C98.2321 52.4684 98.6797 52.8372 99.1953 53.0879C99.7181 53.3385 100.302 53.4639 100.946 53.4639C101.619 53.4639 102.217 53.3385 102.74 53.0879C103.263 52.8372 103.703 52.4684 104.062 51.9814C104.427 51.4873 104.702 50.8822 104.889 50.166C105.075 49.4427 105.168 48.612 105.168 47.6738ZM101.559 35.1377L104.223 38.0703V38.1777H102.568L100.957 36.3623L99.3564 38.1777H97.7236V38.0596L100.355 35.1377H101.559Z" fill="#F36B24"/>
<path d="M85.9727 55H82.707L82.7285 53.3135H85.9727C87.0898 53.3135 88.0208 53.0807 88.7656 52.6152C89.5104 52.1426 90.069 51.4837 90.4414 50.6387C90.821 49.7865 91.0107 48.791 91.0107 47.6523V46.6963C91.0107 45.8011 90.9033 45.0062 90.6885 44.3115C90.4736 43.6097 90.1585 43.0189 89.7432 42.5391C89.3278 42.0521 88.8193 41.6833 88.2178 41.4326C87.6234 41.182 86.9395 41.0566 86.166 41.0566H82.6426V39.3594H86.166C87.1901 39.3594 88.1247 39.5312 88.9697 39.875C89.8148 40.2116 90.5417 40.7021 91.1504 41.3467C91.7663 41.984 92.2389 42.7575 92.5684 43.667C92.8978 44.5693 93.0625 45.5863 93.0625 46.7178V47.6523C93.0625 48.7839 92.8978 49.8044 92.5684 50.7139C92.2389 51.6162 91.7627 52.3861 91.1396 53.0234C90.5238 53.6608 89.779 54.1514 88.9053 54.4951C88.0387 54.8317 87.0612 55 85.9727 55ZM83.8135 39.3594V55H81.7402V39.3594H83.8135ZM86.8428 46.2236V47.8564H80V46.2236H86.8428Z" fill="#F36B24"/>
<path d="M72.6436 39.3594H74.7061V49.9404C74.7061 51.1149 74.4447 52.0924 73.9219 52.873C73.3991 53.6536 72.7044 54.2409 71.8379 54.6348C70.9785 55.0215 70.0439 55.2148 69.0342 55.2148C67.9743 55.2148 67.0146 55.0215 66.1553 54.6348C65.3031 54.2409 64.6263 53.6536 64.125 52.873C63.6309 52.0924 63.3838 51.1149 63.3838 49.9404V39.3594H65.4355V49.9404C65.4355 50.7568 65.5859 51.43 65.8867 51.96C66.1875 52.4899 66.6064 52.8838 67.1436 53.1416C67.6878 53.3994 68.318 53.5283 69.0342 53.5283C69.7575 53.5283 70.3877 53.3994 70.9248 53.1416C71.4691 52.8838 71.8916 52.4899 72.1924 51.96C72.4932 51.43 72.6436 50.7568 72.6436 49.9404V39.3594Z" fill="#F36B24"/>
<path d="M59.2061 46.084V47.7705H50.7412V46.084H59.2061ZM51.0635 39.3594V55H48.9902V39.3594H51.0635ZM61.0107 39.3594V55H58.9482V39.3594H61.0107Z" fill="#F36B24"/>
<path d="M38.249 39.3594V55H36.1758V39.3594H38.249ZM47.6914 39.3594L41.1924 46.6533L37.54 50.4453L37.1963 48.2324L39.9463 45.2031L45.1992 39.3594H47.6914ZM45.6934 55L39.9033 47.373L41.1387 45.7295L48.1641 55H45.6934Z" fill="#F36B24"/>
<path d="M252.805 0.5625L258.371 13.2188L263.977 0.5625H270.852L261.613 18.7266V29H255.148V18.7266L245.891 0.5625H252.805Z" fill="white"/>
<path d="M236.145 0.5625V29H229.797V0.5625H236.145ZM244.797 0.5625V5.50391H221.32V0.5625H244.797Z" fill="white"/>
<path d="M218.352 0.5625V29H212.004V0.5625H218.352Z" fill="white"/>
<path d="M201.711 19.4688H208.039C207.935 21.4219 207.401 23.1471 206.438 24.6445C205.487 26.1289 204.165 27.2943 202.473 28.1406C200.78 28.974 198.768 29.3906 196.438 29.3906C194.576 29.3906 192.909 29.0716 191.438 28.4336C189.966 27.7956 188.716 26.8841 187.688 25.6992C186.672 24.5013 185.891 23.0625 185.344 21.3828C184.81 19.6901 184.543 17.7826 184.543 15.6602V13.9219C184.543 11.7995 184.823 9.89193 185.383 8.19922C185.943 6.50651 186.743 5.0612 187.785 3.86328C188.827 2.66536 190.077 1.7474 191.535 1.10938C192.993 0.471354 194.621 0.152344 196.418 0.152344C198.84 0.152344 200.884 0.588542 202.551 1.46094C204.217 2.33333 205.507 3.53125 206.418 5.05469C207.342 6.57812 207.896 8.31641 208.078 10.2695H201.73C201.678 9.16276 201.47 8.23177 201.105 7.47656C200.741 6.70833 200.181 6.12891 199.426 5.73828C198.671 5.34766 197.668 5.15234 196.418 5.15234C195.507 5.15234 194.706 5.32161 194.016 5.66016C193.339 5.9987 192.772 6.52604 192.316 7.24219C191.874 7.95833 191.542 8.86979 191.32 9.97656C191.099 11.0703 190.988 12.3724 190.988 13.8828V15.6602C190.988 17.1576 191.086 18.4531 191.281 19.5469C191.477 20.6406 191.789 21.5456 192.219 22.2617C192.661 22.9779 193.228 23.5117 193.918 23.8633C194.608 24.2148 195.448 24.3906 196.438 24.3906C197.57 24.3906 198.514 24.2148 199.27 23.8633C200.025 23.4987 200.604 22.9518 201.008 22.2227C201.411 21.4935 201.646 20.5755 201.711 19.4688Z" fill="white"/>
<path d="M156.262 0.5625V29H149.895V0.5625H156.262ZM173.254 0.5625L162.121 14.7812L155.637 21.8125L154.484 15.8945L158.762 9.76172L165.441 0.5625H173.254ZM165.871 29L158.02 16.0117L162.863 12.2422L173.41 29H165.871Z" fill="white"/>
<path d="M145.188 0.5625V29H138.84L128.098 10.6211V29H121.73V0.5625H128.098L138.859 18.9414V0.5625H145.188Z" fill="white"/>
<path d="M116.594 0.5625V29H110.246V0.5625H116.594Z" fill="white"/>
<path d="M106.691 24.0781V29H92.3359V24.0781H106.691ZM94.5039 0.5625V29H88.1367V0.5625H94.5039Z" fill="white"/>
<path d="M75.0508 24.0781V29H59.9141V24.0781H75.0508ZM62.082 0.5625V29H55.7148V0.5625H62.082ZM73.0977 12.0078V16.7734H59.9141V12.0078H73.0977ZM75.0703 0.5625V5.50391H59.9141V0.5625H75.0703Z" fill="white"/>
<path d="M46.5938 12.0078V16.9297H31.8672V12.0078H46.5938ZM33.8789 0.5625V29H27.5117V0.5625H33.8789ZM50.9883 0.5625V29H44.6406V0.5625H50.9883Z" fill="white"/>
<path d="M15.7148 0.5625V29H9.36719V0.5625H15.7148ZM24.3672 0.5625V5.50391H0.890625V0.5625H24.3672Z" fill="white"/>
</svg>
