<svg width="270" height="59" viewBox="0 0 270 59" fill="none" xmlns="http://www.w3.org/2000/svg">
<path d="M225.071 39.207L229.132 47.0596L233.203 39.207H235.556L230.163 49.0039V54.8477H228.09V49.0039L222.697 39.207H225.071Z" fill="#F36B24"/>
<path d="M217.8 40.5928L212.622 54.8477H210.506L216.468 39.207H217.832L217.8 40.5928ZM222.14 54.8477L216.951 40.5928L216.919 39.207H218.283L224.267 54.8477H222.14ZM221.871 49.0576V50.7549H213.084V49.0576H221.871ZM218.015 35.0068L220.679 37.9395V38.0469H219.024L217.413 36.2314L215.812 38.0469H214.18V37.9287L216.812 35.0068H218.015Z" fill="#F36B24"/>
<path d="M6.10938 46.8477H28.3434" stroke="#F26522" stroke-miterlimit="10"/>
<path d="M242.109 46.8477H264.343" stroke="#F26522" stroke-miterlimit="10"/>
<path d="M209.046 39.207V54.8477H206.973V39.207H209.046Z" fill="#F36B24"/>
<path d="M204.385 47.0596V52.7852C204.191 53.0716 203.883 53.3939 203.461 53.752C203.038 54.1029 202.455 54.4108 201.71 54.6758C200.972 54.9336 200.02 55.0625 198.853 55.0625C197.9 55.0625 197.023 54.8978 196.221 54.5684C195.426 54.2318 194.735 53.7448 194.147 53.1074C193.567 52.4629 193.116 51.6823 192.794 50.7656C192.479 49.8418 192.321 48.7962 192.321 47.6289V46.415C192.321 45.2477 192.457 44.2057 192.729 43.2891C193.009 42.3724 193.417 41.5954 193.954 40.958C194.491 40.3135 195.15 39.8265 195.931 39.4971C196.711 39.1605 197.606 38.9922 198.616 38.9922C199.812 38.9922 200.811 39.1999 201.613 39.6152C202.423 40.0234 203.053 40.5892 203.504 41.3125C203.962 42.0358 204.256 42.8594 204.385 43.7832H202.312C202.218 43.2174 202.032 42.7018 201.753 42.2363C201.481 41.7708 201.09 41.3984 200.582 41.1191C200.074 40.8327 199.418 40.6895 198.616 40.6895C197.893 40.6895 197.266 40.8219 196.736 41.0869C196.206 41.3519 195.77 41.7314 195.426 42.2256C195.082 42.7197 194.824 43.3177 194.652 44.0195C194.488 44.7214 194.405 45.5127 194.405 46.3936V47.6289C194.405 48.5312 194.509 49.3369 194.717 50.0459C194.932 50.7549 195.236 51.36 195.63 51.8613C196.024 52.3555 196.493 52.7314 197.037 52.9893C197.589 53.2471 198.197 53.376 198.863 53.376C199.601 53.376 200.199 53.3151 200.657 53.1934C201.116 53.0645 201.474 52.9141 201.731 52.7422C201.989 52.5632 202.186 52.3949 202.322 52.2373V48.7354H198.702V47.0596H204.385Z" fill="#F36B24"/>
<path d="M184.052 39.207H186.114V49.7881C186.114 50.9626 185.853 51.9401 185.33 52.7207C184.807 53.5013 184.113 54.0885 183.246 54.4824C182.387 54.8691 181.452 55.0625 180.442 55.0625C179.382 55.0625 178.423 54.8691 177.563 54.4824C176.711 54.0885 176.035 53.5013 175.533 52.7207C175.039 51.9401 174.792 50.9626 174.792 49.7881V39.207H176.844V49.7881C176.844 50.6045 176.994 51.2777 177.295 51.8076C177.596 52.3376 178.015 52.7314 178.552 52.9893C179.096 53.2471 179.726 53.376 180.442 53.376C181.166 53.376 181.796 53.2471 182.333 52.9893C182.877 52.7314 183.3 52.3376 183.601 51.8076C183.901 51.2777 184.052 50.6045 184.052 49.7881V39.207Z" fill="#F36B24"/>
<path d="M167.735 40.5928L162.558 54.8477H160.441L166.403 39.207H167.768L167.735 40.5928ZM172.075 54.8477L166.887 40.5928L166.854 39.207H168.219L174.202 54.8477H172.075ZM171.807 49.0576V50.7549H163.02V49.0576H171.807ZM168.133 35.3936L171.27 38.2188H169.143L167.316 36.5107L165.501 38.2188H163.385L166.5 35.3936H168.133ZM162.654 33.5352L164.18 36.3066H162.665L160.506 33.5352H162.654Z" fill="#F36B24"/>
<path d="M152.977 54.8477H149.711L149.732 53.1611H152.977C154.094 53.1611 155.025 52.9284 155.77 52.4629C156.514 51.9902 157.073 51.3314 157.445 50.4863C157.825 49.6341 158.015 48.6387 158.015 47.5V46.5439C158.015 45.6488 157.907 44.8538 157.692 44.1592C157.478 43.4574 157.162 42.8665 156.747 42.3867C156.332 41.8997 155.823 41.5309 155.222 41.2803C154.627 41.0296 153.943 40.9043 153.17 40.9043H149.646V39.207H153.17C154.194 39.207 155.129 39.3789 155.974 39.7227C156.819 40.0592 157.546 40.5498 158.154 41.1943C158.77 41.8317 159.243 42.6051 159.572 43.5146C159.902 44.417 160.066 45.4339 160.066 46.5654V47.5C160.066 48.6315 159.902 49.652 159.572 50.5615C159.243 51.4639 158.767 52.2337 158.144 52.8711C157.528 53.5085 156.783 53.999 155.909 54.3428C155.043 54.6794 154.065 54.8477 152.977 54.8477ZM150.817 39.207V54.8477H148.744V39.207H150.817Z" fill="#F36B24"/>
<path d="M141.517 39.207V54.8477H139.443V39.207H141.517ZM139.239 57.3936C139.239 57.0713 139.336 56.7992 139.529 56.5771C139.73 56.3551 140.023 56.2441 140.41 56.2441C140.79 56.2441 141.08 56.3551 141.28 56.5771C141.488 56.7992 141.592 57.0713 141.592 57.3936C141.592 57.7015 141.488 57.9629 141.28 58.1777C141.08 58.3997 140.79 58.5107 140.41 58.5107C140.023 58.5107 139.73 58.3997 139.529 58.1777C139.336 57.9629 139.239 57.7015 139.239 57.3936Z" fill="#F36B24"/>
<path d="M134.804 45.9316V47.6182H126.339V45.9316H134.804ZM126.661 39.207V54.8477H124.588V39.207H126.661ZM136.608 39.207V54.8477H134.546V39.207H136.608Z" fill="#F36B24"/>
<path d="M118.24 39.207V54.8477H116.199V39.207H118.24ZM123.268 39.207V40.9043H111.183V39.207H123.268Z" fill="#F36B24"/>
<path d="M106.329 46.5332V47.5215C106.329 48.696 106.182 49.7487 105.889 50.6797C105.595 51.6107 105.173 52.402 104.621 53.0537C104.07 53.7054 103.407 54.2031 102.634 54.5469C101.868 54.8906 101.008 55.0625 100.056 55.0625C99.1318 55.0625 98.2832 54.8906 97.5098 54.5469C96.7435 54.2031 96.0775 53.7054 95.5117 53.0537C94.9531 52.402 94.5199 51.6107 94.2119 50.6797C93.904 49.7487 93.75 48.696 93.75 47.5215V46.5332C93.75 45.3587 93.9004 44.3096 94.2012 43.3857C94.5091 42.4548 94.9424 41.6634 95.501 41.0117C96.0596 40.3529 96.722 39.8516 97.4883 39.5078C98.2617 39.1641 99.1104 38.9922 100.034 38.9922C100.987 38.9922 101.846 39.1641 102.612 39.5078C103.386 39.8516 104.048 40.3529 104.6 41.0117C105.158 41.6634 105.584 42.4548 105.878 43.3857C106.179 44.3096 106.329 45.3587 106.329 46.5332ZM104.277 47.5215V46.5117C104.277 45.5807 104.181 44.7572 103.987 44.041C103.801 43.3249 103.525 42.7233 103.16 42.2363C102.795 41.7493 102.347 41.3805 101.817 41.1299C101.295 40.8792 100.7 40.7539 100.034 40.7539C99.3896 40.7539 98.806 40.8792 98.2832 41.1299C97.7676 41.3805 97.3236 41.7493 96.9512 42.2363C96.5859 42.7233 96.3031 43.3249 96.1025 44.041C95.902 44.7572 95.8018 45.5807 95.8018 46.5117V47.5215C95.8018 48.4596 95.902 49.2904 96.1025 50.0137C96.3031 50.7298 96.5895 51.335 96.9619 51.8291C97.3415 52.3161 97.7891 52.6849 98.3047 52.9355C98.8275 53.1862 99.4111 53.3115 100.056 53.3115C100.729 53.3115 101.327 53.1862 101.85 52.9355C102.372 52.6849 102.813 52.3161 103.171 51.8291C103.536 51.335 103.812 50.7298 103.998 50.0137C104.184 49.2904 104.277 48.4596 104.277 47.5215ZM100.668 34.9854L103.332 37.918V38.0254H101.678L100.066 36.21L98.4658 38.0254H96.833V37.9072L99.4648 34.9854H100.668Z" fill="#F36B24"/>
<path d="M85.082 54.8477H81.8164L81.8379 53.1611H85.082C86.1992 53.1611 87.1302 52.9284 87.875 52.4629C88.6198 51.9902 89.1784 51.3314 89.5508 50.4863C89.9303 49.6341 90.1201 48.6387 90.1201 47.5V46.5439C90.1201 45.6488 90.0127 44.8538 89.7979 44.1592C89.583 43.4574 89.2679 42.8665 88.8525 42.3867C88.4372 41.8997 87.9287 41.5309 87.3271 41.2803C86.7327 41.0296 86.0488 40.9043 85.2754 40.9043H81.752V39.207H85.2754C86.2995 39.207 87.234 39.3789 88.0791 39.7227C88.9242 40.0592 89.651 40.5498 90.2598 41.1943C90.8757 41.8317 91.3483 42.6051 91.6777 43.5146C92.0072 44.417 92.1719 45.4339 92.1719 46.5654V47.5C92.1719 48.6315 92.0072 49.652 91.6777 50.5615C91.3483 51.4639 90.8721 52.2337 90.249 52.8711C89.6331 53.5085 88.8883 53.999 88.0146 54.3428C87.1481 54.6794 86.1706 54.8477 85.082 54.8477ZM82.9229 39.207V54.8477H80.8496V39.207H82.9229ZM85.9521 46.0713V47.7041H79.1094V46.0713H85.9521Z" fill="#F36B24"/>
<path d="M71.7529 39.207H73.8154V49.7881C73.8154 50.9626 73.554 51.9401 73.0312 52.7207C72.5085 53.5013 71.8138 54.0885 70.9473 54.4824C70.0879 54.8691 69.1533 55.0625 68.1436 55.0625C67.0837 55.0625 66.124 54.8691 65.2646 54.4824C64.4124 54.0885 63.7357 53.5013 63.2344 52.7207C62.7402 51.9401 62.4932 50.9626 62.4932 49.7881V39.207H64.5449V49.7881C64.5449 50.6045 64.6953 51.2777 64.9961 51.8076C65.2969 52.3376 65.7158 52.7314 66.2529 52.9893C66.7972 53.2471 67.4274 53.376 68.1436 53.376C68.8669 53.376 69.4971 53.2471 70.0342 52.9893C70.5785 52.7314 71.001 52.3376 71.3018 51.8076C71.6025 51.2777 71.7529 50.6045 71.7529 49.7881V39.207Z" fill="#F36B24"/>
<path d="M58.3154 45.9316V47.6182H49.8506V45.9316H58.3154ZM50.1729 39.207V54.8477H48.0996V39.207H50.1729ZM60.1201 39.207V54.8477H58.0576V39.207H60.1201Z" fill="#F36B24"/>
<path d="M37.3584 39.207V54.8477H35.2852V39.207H37.3584ZM46.8008 39.207L40.3018 46.501L36.6494 50.293L36.3057 48.0801L39.0557 45.0508L44.3086 39.207H46.8008ZM44.8027 54.8477L39.0127 47.2207L40.248 45.5771L47.2734 54.8477H44.8027Z" fill="#F36B24"/>
<path d="M251.914 0.410156L257.48 13.0664L263.086 0.410156H269.961L260.723 18.5742V28.8477H254.258V18.5742L245 0.410156H251.914Z" fill="#326768"/>
<path d="M235.254 0.410156V28.8477H228.906V0.410156H235.254ZM243.906 0.410156V5.35156H220.43V0.410156H243.906Z" fill="#326768"/>
<path d="M217.461 0.410156V28.8477H211.113V0.410156H217.461Z" fill="#326768"/>
<path d="M200.82 19.3164H207.148C207.044 21.2695 206.51 22.9948 205.547 24.4922C204.596 25.9766 203.275 27.1419 201.582 27.9883C199.889 28.8216 197.878 29.2383 195.547 29.2383C193.685 29.2383 192.018 28.9193 190.547 28.2812C189.076 27.6432 187.826 26.7318 186.797 25.5469C185.781 24.349 185 22.9102 184.453 21.2305C183.919 19.5378 183.652 17.6302 183.652 15.5078V13.7695C183.652 11.6471 183.932 9.73958 184.492 8.04688C185.052 6.35417 185.853 4.90885 186.895 3.71094C187.936 2.51302 189.186 1.59505 190.645 0.957031C192.103 0.31901 193.73 0 195.527 0C197.949 0 199.993 0.436198 201.66 1.30859C203.327 2.18099 204.616 3.37891 205.527 4.90234C206.452 6.42578 207.005 8.16406 207.188 10.1172H200.84C200.788 9.01042 200.579 8.07943 200.215 7.32422C199.85 6.55599 199.29 5.97656 198.535 5.58594C197.78 5.19531 196.777 5 195.527 5C194.616 5 193.815 5.16927 193.125 5.50781C192.448 5.84635 191.882 6.3737 191.426 7.08984C190.983 7.80599 190.651 8.71745 190.43 9.82422C190.208 10.918 190.098 12.2201 190.098 13.7305V15.5078C190.098 17.0052 190.195 18.3008 190.391 19.3945C190.586 20.4883 190.898 21.3932 191.328 22.1094C191.771 22.8255 192.337 23.3594 193.027 23.7109C193.717 24.0625 194.557 24.2383 195.547 24.2383C196.68 24.2383 197.624 24.0625 198.379 23.7109C199.134 23.3464 199.714 22.7995 200.117 22.0703C200.521 21.3411 200.755 20.4232 200.82 19.3164Z" fill="#326768"/>
<path d="M155.371 0.410156V28.8477H149.004V0.410156H155.371ZM172.363 0.410156L161.23 14.6289L154.746 21.6602L153.594 15.7422L157.871 9.60938L164.551 0.410156H172.363ZM164.98 28.8477L157.129 15.8594L161.973 12.0898L172.52 28.8477H164.98Z" fill="#326768"/>
<path d="M144.297 0.410156V28.8477H137.949L127.207 10.4688V28.8477H120.84V0.410156H127.207L137.969 18.7891V0.410156H144.297Z" fill="#326768"/>
<path d="M115.703 0.410156V28.8477H109.355V0.410156H115.703Z" fill="#326768"/>
<path d="M105.801 23.9258V28.8477H91.4453V23.9258H105.801ZM93.6133 0.410156V28.8477H87.2461V0.410156H93.6133Z" fill="#326768"/>
<path d="M74.1602 23.9258V28.8477H59.0234V23.9258H74.1602ZM61.1914 0.410156V28.8477H54.8242V0.410156H61.1914ZM72.207 11.8555V16.6211H59.0234V11.8555H72.207ZM74.1797 0.410156V5.35156H59.0234V0.410156H74.1797Z" fill="#326768"/>
<path d="M45.7031 11.8555V16.7773H30.9766V11.8555H45.7031ZM32.9883 0.410156V28.8477H26.6211V0.410156H32.9883ZM50.0977 0.410156V28.8477H43.75V0.410156H50.0977Z" fill="#326768"/>
<path d="M14.8242 0.410156V28.8477H8.47656V0.410156H14.8242ZM23.4766 0.410156V5.35156H0V0.410156H23.4766Z" fill="#326768"/>
</svg>
