<svg width="21" height="21" viewBox="0 0 21 21" fill="none" xmlns="http://www.w3.org/2000/svg">
<path d="M18.8917 4.54547C18.8914 4.53342 18.8908 4.52139 18.8899 4.50938C18.8891 4.49958 18.8882 4.48985 18.887 4.48018C18.8856 4.46892 18.8838 4.45773 18.8819 4.44654C18.8801 4.43644 18.8781 4.42641 18.8759 4.41649C18.8735 4.40588 18.8707 4.39536 18.8677 4.38486C18.8649 4.37482 18.862 4.36488 18.8588 4.35505C18.8553 4.34479 18.8515 4.33469 18.8476 4.32459C18.8438 4.31493 18.84 4.30537 18.8358 4.29596C18.8314 4.28602 18.8265 4.27626 18.8216 4.26652C18.8169 4.25727 18.8121 4.24813 18.807 4.23914C18.8017 4.22985 18.7961 4.22073 18.7903 4.21164C18.7845 4.20248 18.7785 4.19349 18.7722 4.18464C18.7663 4.17631 18.7601 4.16814 18.7538 4.16003C18.7467 4.1509 18.7393 4.14203 18.7317 4.1333C18.7281 4.12919 18.725 4.12481 18.7213 4.12076C18.7181 4.11734 18.7147 4.11444 18.7115 4.1111C18.7036 4.10287 18.6955 4.09497 18.6872 4.08716C18.6795 4.07992 18.6718 4.07274 18.6639 4.06593C18.656 4.05925 18.648 4.05292 18.6398 4.0466C18.6309 4.03968 18.622 4.03282 18.6128 4.02644C18.6049 4.02089 18.5967 4.01574 18.5885 4.01055C18.5788 4.00443 18.5691 3.99832 18.5592 3.99276C18.5505 3.98791 18.5416 3.98351 18.5327 3.97906C18.5229 3.97415 18.5132 3.9692 18.5031 3.96481C18.4934 3.96051 18.4834 3.95677 18.4734 3.95296C18.4638 3.9493 18.4543 3.94558 18.4446 3.9424C18.4341 3.93892 18.4233 3.93602 18.4125 3.93307C18.4029 3.93045 18.3933 3.9278 18.3836 3.92564C18.3729 3.92323 18.362 3.92134 18.351 3.91947C18.3407 3.91772 18.3304 3.91601 18.3201 3.91476C18.3098 3.91351 18.2994 3.91267 18.2889 3.91192C18.2775 3.91108 18.2662 3.91043 18.2548 3.91019C18.2501 3.91008 18.2457 3.90948 18.241 3.90948H2.60464C2.60027 3.90948 2.59605 3.91006 2.59168 3.91014C2.57967 3.91038 2.56766 3.91106 2.55569 3.91195C2.54579 3.91271 2.53597 3.91348 2.52622 3.91465C2.51529 3.91597 2.50443 3.91776 2.49354 3.91965C2.48316 3.92144 2.47278 3.9232 2.4626 3.92549C2.45234 3.92778 2.44224 3.93056 2.43206 3.93334C2.4218 3.93617 2.41154 3.93893 2.40148 3.94223C2.3913 3.94557 2.38128 3.94945 2.37122 3.95331C2.36171 3.95697 2.35217 3.96054 2.34286 3.96462C2.33249 3.96917 2.32234 3.9743 2.31216 3.97943C2.30361 3.98373 2.29506 3.98792 2.28675 3.99258C2.27657 3.99828 2.26663 4.00455 2.25669 4.01085C2.24874 4.0159 2.2407 4.02091 2.23299 4.0263C2.22365 4.03278 2.21462 4.03973 2.20559 4.04678C2.19756 4.053 2.18961 4.05924 2.18189 4.06584C2.17386 4.0727 2.16611 4.07992 2.15831 4.08726C2.15008 4.09501 2.14201 4.10288 2.13418 4.11106C2.131 4.11442 2.1275 4.11734 2.12435 4.12076C2.12066 4.12481 2.11755 4.12919 2.11398 4.1333C2.10638 4.14203 2.09898 4.1509 2.09182 4.16002C2.0855 4.16814 2.07934 4.17631 2.07345 4.18464C2.06717 4.19349 2.06117 4.20247 2.05532 4.21164C2.04955 4.22072 2.04395 4.22985 2.03862 4.23914C2.03353 4.24812 2.02872 4.25727 2.02403 4.26651C2.01909 4.27626 2.01428 4.28602 2.00983 4.29596C2.00565 4.30537 2.0018 4.31493 1.99806 4.32459C1.99412 4.33469 1.9903 4.34479 1.98688 4.35505C1.98363 4.36487 1.98072 4.37481 1.9779 4.38486C1.97495 4.39535 1.97217 4.40587 1.96975 4.41649C1.96752 4.42641 1.96557 4.43643 1.96378 4.44653C1.96179 4.45773 1.96004 4.46892 1.95865 4.48017C1.95746 4.48986 1.95649 4.49959 1.95575 4.50938C1.95479 4.52141 1.95418 4.53344 1.95392 4.54547C1.9538 4.55068 1.95312 4.55575 1.95312 4.561V15.6368C1.95352 15.9822 2.09093 16.3134 2.33521 16.5577C2.57949 16.802 2.91069 16.9394 3.25616 16.9398H17.5895C17.935 16.9394 18.2662 16.802 18.5104 16.5577C18.7547 16.3134 18.8921 15.9822 18.8925 15.6368V4.561C18.8925 4.55575 18.8918 4.55068 18.8917 4.54547ZM3.25616 6.04208L8.03714 10.4247L3.25616 14.8072V6.04208ZM4.27963 15.6368L9.00137 11.3085L9.98254 12.2079C10.1027 12.3181 10.2598 12.3792 10.4228 12.3792C10.5858 12.3792 10.7429 12.3181 10.8631 12.2079L11.8443 11.3085L16.566 15.6368H4.27963ZM12.8085 10.4246L17.5896 6.04196L17.5902 14.8078L12.8085 10.4246Z" fill="#F26A23"/>
</svg>
