<svg width="151" height="47" viewBox="0 0 151 47" fill="none" xmlns="http://www.w3.org/2000/svg">
<g clip-path="url(#clip0_5305_3659)">
<path d="M0 0H5.9278V14.2566L19.2083 0H26.374L16.3585 11.332L29.639 26.677H22.9969L12.9813 15.1954L5.9278 22.4733V26.677H0V0Z" fill="#326768"/>
<path d="M41.4297 0.0186768H47.3575L47.3799 11.5564H59.2767L59.2542 0.0186768H65.1446L65.1671 26.677H59.2767V16.1715H47.3799V26.677H41.4521L41.4297 0.0186768Z" fill="#326768"/>
<path d="M67.9883 13.546C67.9883 5.85296 73.9909 0.0373535 81.9457 0.0373535C89.9006 0.0373535 95.791 5.96516 95.791 13.5423C95.791 21.1194 89.9006 26.9724 81.9457 27.0472C73.9909 27.122 67.9883 21.2316 67.9883 13.5423M81.8709 22.4321C87.047 22.3947 89.9006 18.2696 89.9006 13.5423C89.9006 8.81499 87.0508 4.65244 81.8709 4.65244C76.6911 4.65244 73.9161 8.81499 73.9161 13.5797C73.9161 18.3444 76.8819 22.4695 81.8709 22.4321Z" fill="#326768"/>
<path d="M98.7539 0H104.341L113.908 11.2909L121.971 0H127.596V26.677H121.706V8.96837L113.908 19.5449L104.682 8.96837V26.677H98.7539V0Z" fill="#326768"/>
<path d="M130.5 0H150.999V5.33315H136.555V11.3171H148.261V16.0069H136.555V21.3401H150.999V26.677H130.5V0Z" fill="#326768"/>
<path d="M23.6641 32.631H25.1675L34.9774 43.3721V32.631H36.6529V45.9639H35.1494L25.3396 35.2789V45.9639H23.6641V32.631Z" fill="#F36B24"/>
<path d="M38.1367 32.631H48.5562V34.1531H39.8122V38.8019H47.0714V40.152H39.8122V44.438H48.5562V45.9639H38.1367V32.631Z" fill="#F36B24"/>
<path d="M50.0391 32.631H51.7333L56.4755 43.7349L61.1429 32.631H62.6277L67.1605 43.7349L72.0149 32.631H73.7316L67.8823 45.9639H66.435L61.8648 35.0507L57.2197 45.9639H55.7537L50.0391 32.631Z" fill="#F36B24"/>
<path d="M79.1094 39.3143C79.1094 35.4472 82.0415 32.4216 86.1928 32.4403C89.6971 32.459 92.1917 34.4598 93.0294 37.2985H91.2978C90.5947 35.2602 88.8594 33.8315 86.1741 33.7941C82.8792 33.7754 80.7849 36.3074 80.7849 39.318C80.7849 42.3287 82.8792 44.8232 86.1741 44.8045C88.8781 44.7671 90.6508 43.3011 91.3352 41.2441H93.0481C92.2665 44.1014 89.7345 46.121 86.1928 46.1584C82.0415 46.1958 79.1094 43.1702 79.1094 39.3218" fill="#F36B24"/>
<path d="M96.2028 32.631H94.5273V45.9639H96.2028V32.631Z" fill="#F36B24"/>
<path d="M103.38 33.9848H97.6875V32.631H110.77V33.9848H105.055V45.9639H103.38V33.9848Z" fill="#F36B24"/>
<path d="M119.184 40.3053L112.25 32.631H114.098L119.984 39.0674L125.504 32.631H127.333L120.859 40.2866V45.9639H119.184V40.3053Z" fill="#F36B24"/>
<path d="M27.5703 18.3032V18.3294H27.5778L27.5703 18.3032Z" fill="#326768"/>
<path d="M36.6 11.5564H28.7461V16.1715H36.6V11.5564Z" fill="#326768"/>
<path d="M0 39.2955H21.2092" stroke="#F26522" stroke-miterlimit="10"/>
<path d="M128.766 39.2955H151" stroke="#F26522" stroke-miterlimit="10"/>
</g>
<defs>
<clipPath id="clip0_5305_3659">
<rect width="151" height="46.1546" fill="white"/>
</clipPath>
</defs>
</svg>
