<svg xmlns="http://www.w3.org/2000/svg" xmlns:xlink="http://www.w3.org/1999/xlink" width="150" zoomAndPan="magnify" viewBox="0 0 112.5 35.25" height="47" preserveAspectRatio="xMidYMid meet" version="1.2"><defs/><g id="8e2e230952"><g style="fill:#ffffff;fill-opacity:1;"><g transform="translate(2.268625, 17.53933)"><path style="stroke:none" d="M 5.546875 0 L 3.25 0 L 3.25 -8.921875 L 0.296875 -8.921875 L 0.296875 -10.828125 L 8.484375 -10.828125 L 8.484375 -8.921875 L 5.546875 -8.921875 Z M 5.546875 0 "/></g></g><g style="fill:#ffffff;fill-opacity:1;"><g transform="translate(11.053268, 17.53933)"><path style="stroke:none" d="M 10.234375 0 L 7.953125 0 L 7.953125 -4.671875 L 3.65625 -4.671875 L 3.65625 0 L 1.359375 0 L 1.359375 -10.828125 L 3.65625 -10.828125 L 3.65625 -6.578125 L 7.953125 -6.578125 L 7.953125 -10.828125 L 10.234375 -10.828125 Z M 10.234375 0 "/></g></g><g style="fill:#ffffff;fill-opacity:1;"><g transform="translate(22.659958, 17.53933)"><path style="stroke:none" d="M 7.59375 0 L 1.359375 0 L 1.359375 -10.828125 L 7.59375 -10.828125 L 7.59375 -8.953125 L 3.65625 -8.953125 L 3.65625 -6.578125 L 7.328125 -6.578125 L 7.328125 -4.6875 L 3.65625 -4.6875 L 3.65625 -1.890625 L 7.59375 -1.890625 Z M 7.59375 0 "/></g></g><g style="fill:#ffffff;fill-opacity:1;"><g transform="translate(31.155729, 17.53933)"><path style="stroke:none" d=""/></g></g><g style="fill:#ffffff;fill-opacity:1;"><g transform="translate(35.096226, 17.53933)"><path style="stroke:none" d="M 1.359375 0 L 1.359375 -10.828125 L 3.65625 -10.828125 L 3.65625 -1.890625 L 8.046875 -1.890625 L 8.046875 0 Z M 1.359375 0 "/></g></g><g style="fill:#ffffff;fill-opacity:1;"><g transform="translate(43.666067, 17.53933)"><path style="stroke:none" d="M 5.421875 0 L 0.484375 0 L 0.484375 -1.296875 L 1.8125 -1.90625 L 1.8125 -8.921875 L 0.484375 -9.53125 L 0.484375 -10.828125 L 5.421875 -10.828125 L 5.421875 -9.53125 L 4.09375 -8.921875 L 4.09375 -1.90625 L 5.421875 -1.296875 Z M 5.421875 0 "/></g></g><g style="fill:#ffffff;fill-opacity:1;"><g transform="translate(49.569406, 17.53933)"><path style="stroke:none" d="M 10.96875 0 L 8.046875 0 L 3.34375 -8.1875 L 3.28125 -8.1875 C 3.375 -6.738281 3.421875 -5.707031 3.421875 -5.09375 L 3.421875 0 L 1.359375 0 L 1.359375 -10.828125 L 4.265625 -10.828125 L 8.96875 -2.71875 L 9.015625 -2.71875 C 8.941406 -4.125 8.90625 -5.117188 8.90625 -5.703125 L 8.90625 -10.828125 L 10.96875 -10.828125 Z M 10.96875 0 "/></g></g><g style="fill:#ffffff;fill-opacity:1;"><g transform="translate(61.901977, 17.53933)"><path style="stroke:none" d="M 10.078125 0 L 7.46875 0 L 4.625 -4.5625 L 3.65625 -3.859375 L 3.65625 0 L 1.359375 0 L 1.359375 -10.828125 L 3.65625 -10.828125 L 3.65625 -5.875 L 4.5625 -7.15625 L 7.5 -10.828125 L 10.046875 -10.828125 L 6.265625 -6.03125 Z M 10.078125 0 "/></g></g><g style="fill:#ffffff;fill-opacity:1;"><g transform="translate(71.975429, 17.53933)"><path style="stroke:none" d=""/></g></g><g style="fill:#ffffff;fill-opacity:1;"><g transform="translate(75.915926, 17.53933)"><path style="stroke:none" d="M 5.96875 -9.078125 C 5.101562 -9.078125 4.429688 -8.75 3.953125 -8.09375 C 3.484375 -7.445312 3.25 -6.546875 3.25 -5.390625 C 3.25 -2.972656 4.15625 -1.765625 5.96875 -1.765625 C 6.726562 -1.765625 7.648438 -1.953125 8.734375 -2.328125 L 8.734375 -0.40625 C 7.835938 -0.0390625 6.84375 0.140625 5.75 0.140625 C 4.175781 0.140625 2.96875 -0.332031 2.125 -1.28125 C 1.289062 -2.238281 0.875 -3.613281 0.875 -5.40625 C 0.875 -6.53125 1.078125 -7.515625 1.484375 -8.359375 C 1.898438 -9.203125 2.492188 -9.847656 3.265625 -10.296875 C 4.035156 -10.753906 4.9375 -10.984375 5.96875 -10.984375 C 7.019531 -10.984375 8.078125 -10.726562 9.140625 -10.21875 L 8.390625 -8.359375 C 7.984375 -8.546875 7.578125 -8.710938 7.171875 -8.859375 C 6.765625 -9.003906 6.363281 -9.078125 5.96875 -9.078125 Z M 5.96875 -9.078125 "/></g></g><g style="fill:#ffffff;fill-opacity:1;"><g transform="translate(85.581995, 17.53933)"><path style="stroke:none" d="M 5.421875 0 L 0.484375 0 L 0.484375 -1.296875 L 1.8125 -1.90625 L 1.8125 -8.921875 L 0.484375 -9.53125 L 0.484375 -10.828125 L 5.421875 -10.828125 L 5.421875 -9.53125 L 4.09375 -8.921875 L 4.09375 -1.90625 L 5.421875 -1.296875 Z M 5.421875 0 "/></g></g><g style="fill:#ffffff;fill-opacity:1;"><g transform="translate(91.485334, 17.53933)"><path style="stroke:none" d="M 5.546875 0 L 3.25 0 L 3.25 -8.921875 L 0.296875 -8.921875 L 0.296875 -10.828125 L 8.484375 -10.828125 L 8.484375 -8.921875 L 5.546875 -8.921875 Z M 5.546875 0 "/></g></g><g style="fill:#ffffff;fill-opacity:1;"><g transform="translate(100.269977, 17.53933)"><path style="stroke:none" d="M 4.734375 -6.375 L 7 -10.828125 L 9.46875 -10.828125 L 5.875 -4.21875 L 5.875 0 L 3.59375 0 L 3.59375 -4.140625 L 0 -10.828125 L 2.484375 -10.828125 Z M 4.734375 -6.375 "/></g></g><g style="fill:#f26a23;fill-opacity:1;"><g transform="translate(3.692459, 28.08984)"><path style="stroke:none" d="M 0.46875 -1.8125 L 0.46875 -2.3125 L 2.578125 -2.3125 L 2.578125 -1.8125 Z M 0.46875 -1.8125 "/></g></g><g style="fill:#f26a23;fill-opacity:1;"><g transform="translate(6.750414, 28.08984)"><path style="stroke:none" d=""/></g></g><g style="fill:#f26a23;fill-opacity:1;"><g transform="translate(9.438236, 28.08984)"><path style="stroke:none" d="M 0.34375 0 L 0.34375 -0.46875 L 1.03125 -0.46875 L 1.03125 -4.5 L 0.34375 -4.5 L 0.34375 -4.96875 L 2.4375 -4.96875 L 2.4375 -4.5 L 1.75 -4.5 L 1.75 -2.59375 L 3.796875 -4.5 L 3.234375 -4.5 L 3.234375 -4.96875 L 5.28125 -4.96875 L 5.28125 -4.5 L 4.640625 -4.5 L 2.484375 -2.5 L 4.671875 -0.46875 L 5.328125 -0.46875 L 5.328125 0 L 3.203125 0 L 3.203125 -0.46875 L 3.796875 -0.46875 L 1.75 -2.359375 L 1.75 -0.46875 L 2.4375 -0.46875 L 2.4375 0 Z M 0.34375 0 "/></g></g><g style="fill:#f26a23;fill-opacity:1;"><g transform="translate(15.016578, 28.08984)"><path style="stroke:none" d="M 0.34375 0 L 0.34375 -0.46875 L 1.03125 -0.46875 L 1.03125 -4.5 L 0.34375 -4.5 L 0.34375 -4.96875 L 2.4375 -4.96875 L 2.4375 -4.5 L 1.75 -4.5 L 1.75 -2.796875 L 4.390625 -2.796875 L 4.390625 -4.5 L 3.703125 -4.5 L 3.703125 -4.96875 L 5.796875 -4.96875 L 5.796875 -4.5 L 5.109375 -4.5 L 5.109375 -0.46875 L 5.796875 -0.46875 L 5.796875 0 L 3.703125 0 L 3.703125 -0.46875 L 4.390625 -0.46875 L 4.390625 -2.296875 L 1.75 -2.296875 L 1.75 -0.46875 L 2.4375 -0.46875 L 2.4375 0 Z M 0.34375 0 "/></g></g><g style="fill:#f26a23;fill-opacity:1;"><g transform="translate(21.158922, 28.08984)"><path style="stroke:none" d="M 2.96875 0.09375 C 2.257812 0.09375 1.738281 -0.078125 1.40625 -0.421875 C 1.070312 -0.765625 0.90625 -1.222656 0.90625 -1.796875 L 0.90625 -4.5 L 0.234375 -4.5 L 0.234375 -4.96875 L 2.28125 -4.96875 L 2.28125 -4.5 L 1.609375 -4.5 L 1.609375 -1.703125 C 1.609375 -1.304688 1.726562 -0.992188 1.96875 -0.765625 C 2.21875 -0.546875 2.554688 -0.4375 2.984375 -0.4375 C 3.453125 -0.4375 3.8125 -0.546875 4.0625 -0.765625 C 4.320312 -0.992188 4.453125 -1.304688 4.453125 -1.703125 L 4.453125 -4.5 L 3.796875 -4.5 L 3.796875 -4.96875 L 5.734375 -4.96875 L 5.734375 -4.5 L 5.0625 -4.5 L 5.0625 -1.734375 C 5.0625 -1.140625 4.867188 -0.6875 4.484375 -0.375 C 4.109375 -0.0625 3.601562 0.09375 2.96875 0.09375 Z M 2.96875 0.09375 "/></g></g><g style="fill:#f26a23;fill-opacity:1;"><g transform="translate(27.063326, 28.08984)"><path style="stroke:none" d=""/></g></g><g style="fill:#f26a23;fill-opacity:1;"><g transform="translate(29.751147, 28.08984)"><path style="stroke:none" d="M 3.046875 -4.96875 C 3.597656 -4.96875 4.0625 -4.851562 4.4375 -4.625 C 4.820312 -4.394531 5.109375 -4.09375 5.296875 -3.71875 C 5.492188 -3.34375 5.59375 -2.945312 5.59375 -2.53125 C 5.59375 -2.03125 5.492188 -1.585938 5.296875 -1.203125 C 5.109375 -0.828125 4.828125 -0.53125 4.453125 -0.3125 C 4.078125 -0.101562 3.613281 0 3.0625 0 L 0.359375 0 L 0.359375 -0.46875 L 1.046875 -0.46875 L 1.046875 -2.296875 L 0.359375 -2.296875 L 0.359375 -2.796875 L 1.046875 -2.796875 L 1.046875 -4.5 L 0.359375 -4.5 L 0.359375 -4.96875 Z M 2.984375 -0.46875 C 3.617188 -0.46875 4.085938 -0.65625 4.390625 -1.03125 C 4.703125 -1.40625 4.859375 -1.898438 4.859375 -2.515625 C 4.859375 -2.867188 4.789062 -3.191406 4.65625 -3.484375 C 4.519531 -3.785156 4.3125 -4.03125 4.03125 -4.21875 C 3.757812 -4.40625 3.421875 -4.5 3.015625 -4.5 L 1.765625 -4.5 L 1.765625 -2.796875 L 2.453125 -2.796875 L 2.453125 -2.296875 L 1.765625 -2.296875 L 1.765625 -0.46875 Z M 2.984375 -0.46875 "/></g></g><g style="fill:#f26a23;fill-opacity:1;"><g transform="translate(35.778926, 28.08984)"><path style="stroke:none" d="M 3.125 0.09375 C 2.59375 0.09375 2.117188 -0.0195312 1.703125 -0.25 C 1.296875 -0.476562 0.984375 -0.785156 0.765625 -1.171875 C 0.546875 -1.566406 0.4375 -2 0.4375 -2.46875 C 0.4375 -2.925781 0.546875 -3.351562 0.765625 -3.75 C 0.984375 -4.15625 1.296875 -4.472656 1.703125 -4.703125 C 2.117188 -4.929688 2.59375 -5.046875 3.125 -5.046875 C 3.644531 -5.046875 4.109375 -4.929688 4.515625 -4.703125 C 4.929688 -4.472656 5.25 -4.15625 5.46875 -3.75 C 5.695312 -3.351562 5.8125 -2.925781 5.8125 -2.46875 C 5.8125 -2 5.695312 -1.566406 5.46875 -1.171875 C 5.25 -0.785156 4.929688 -0.476562 4.515625 -0.25 C 4.109375 -0.0195312 3.644531 0.09375 3.125 0.09375 Z M 3.125 -0.4375 C 3.507812 -0.4375 3.847656 -0.523438 4.140625 -0.703125 C 4.429688 -0.890625 4.65625 -1.132812 4.8125 -1.4375 C 4.96875 -1.75 5.046875 -2.09375 5.046875 -2.46875 C 5.046875 -2.851562 4.96875 -3.195312 4.8125 -3.5 C 4.65625 -3.8125 4.429688 -4.0625 4.140625 -4.25 C 3.847656 -4.4375 3.507812 -4.53125 3.125 -4.53125 C 2.726562 -4.53125 2.382812 -4.4375 2.09375 -4.25 C 1.8125 -4.0625 1.59375 -3.8125 1.4375 -3.5 C 1.28125 -3.1875 1.203125 -2.835938 1.203125 -2.453125 C 1.203125 -2.078125 1.28125 -1.734375 1.4375 -1.421875 C 1.59375 -1.117188 1.8125 -0.878906 2.09375 -0.703125 C 2.382812 -0.523438 2.726562 -0.4375 3.125 -0.4375 Z M 2.03125 -5.453125 L 2.765625 -6.84375 L 3.453125 -6.84375 L 4.1875 -5.453125 L 3.6875 -5.453125 L 3.109375 -6.5625 L 2.53125 -5.453125 Z M 2.03125 -5.453125 "/></g></g><g style="fill:#f26a23;fill-opacity:1;"><g transform="translate(42.027018, 28.08984)"><path style="stroke:none" d=""/></g></g><g style="fill:#f26a23;fill-opacity:1;"><g transform="translate(44.714839, 28.08984)"><path style="stroke:none" d="M 1.421875 0 L 1.421875 -0.46875 L 2.109375 -0.46875 L 2.109375 -4.5 L 0.765625 -4.5 L 0.765625 -3.234375 L 0.21875 -3.234375 L 0.21875 -4.96875 L 4.703125 -4.96875 L 4.703125 -3.234375 L 4.15625 -3.234375 L 4.15625 -4.5 L 2.828125 -4.5 L 2.828125 -0.46875 L 3.515625 -0.46875 L 3.515625 0 Z M 1.421875 0 "/></g></g><g style="fill:#f26a23;fill-opacity:1;"><g transform="translate(49.641057, 28.08984)"><path style="stroke:none" d="M 0.34375 0 L 0.34375 -0.46875 L 1.03125 -0.46875 L 1.03125 -4.5 L 0.34375 -4.5 L 0.34375 -4.96875 L 2.4375 -4.96875 L 2.4375 -4.5 L 1.75 -4.5 L 1.75 -2.796875 L 4.390625 -2.796875 L 4.390625 -4.5 L 3.703125 -4.5 L 3.703125 -4.96875 L 5.796875 -4.96875 L 5.796875 -4.5 L 5.109375 -4.5 L 5.109375 -0.46875 L 5.796875 -0.46875 L 5.796875 0 L 3.703125 0 L 3.703125 -0.46875 L 4.390625 -0.46875 L 4.390625 -2.296875 L 1.75 -2.296875 L 1.75 -0.46875 L 2.4375 -0.46875 L 2.4375 0 Z M 0.34375 0 "/></g></g><g style="fill:#f26a23;fill-opacity:1;"><g transform="translate(55.783402, 28.08984)"><path style="stroke:none" d="M 0.4375 0 L 0.4375 -0.46875 L 1.125 -0.46875 L 1.125 -4.5 L 0.4375 -4.5 L 0.4375 -4.96875 L 2.546875 -4.96875 L 2.546875 -4.5 L 1.84375 -4.5 L 1.84375 -0.46875 L 2.546875 -0.46875 L 2.546875 0 Z M 1.484375 1.234375 C 1.367188 1.234375 1.269531 1.191406 1.1875 1.109375 C 1.101562 1.035156 1.0625 0.945312 1.0625 0.84375 C 1.0625 0.726562 1.097656 0.628906 1.171875 0.546875 C 1.253906 0.472656 1.359375 0.4375 1.484375 0.4375 C 1.609375 0.4375 1.707031 0.472656 1.78125 0.546875 C 1.863281 0.617188 1.90625 0.71875 1.90625 0.84375 C 1.90625 0.945312 1.863281 1.035156 1.78125 1.109375 C 1.707031 1.191406 1.609375 1.234375 1.484375 1.234375 Z M 1.484375 1.234375 "/></g></g><g style="fill:#f26a23;fill-opacity:1;"><g transform="translate(58.770851, 28.08984)"><path style="stroke:none" d=""/></g></g><g style="fill:#f26a23;fill-opacity:1;"><g transform="translate(61.458672, 28.08984)"><path style="stroke:none" d="M 0.359375 -0.46875 L 1.046875 -0.46875 L 1.046875 -4.5 L 0.359375 -4.5 L 0.359375 -4.96875 L 3.046875 -4.96875 C 3.597656 -4.96875 4.0625 -4.851562 4.4375 -4.625 C 4.820312 -4.394531 5.109375 -4.09375 5.296875 -3.71875 C 5.492188 -3.34375 5.59375 -2.945312 5.59375 -2.53125 C 5.59375 -2.03125 5.492188 -1.585938 5.296875 -1.203125 C 5.109375 -0.828125 4.828125 -0.53125 4.453125 -0.3125 C 4.078125 -0.101562 3.613281 0 3.0625 0 L 0.359375 0 Z M 2.984375 -0.46875 C 3.617188 -0.46875 4.085938 -0.65625 4.390625 -1.03125 C 4.703125 -1.40625 4.859375 -1.898438 4.859375 -2.515625 C 4.859375 -2.867188 4.789062 -3.191406 4.65625 -3.484375 C 4.519531 -3.785156 4.3125 -4.03125 4.03125 -4.21875 C 3.757812 -4.40625 3.421875 -4.5 3.015625 -4.5 L 1.765625 -4.5 L 1.765625 -0.46875 Z M 2.984375 -0.46875 "/></g></g><g style="fill:#f26a23;fill-opacity:1;"><g transform="translate(67.48645, 28.08984)"><path style="stroke:none" d="M 0.25 0 L 0.25 -0.46875 L 0.875 -0.46875 L 2.3125 -4.5 L 1.765625 -4.5 L 1.765625 -4.96875 L 4.1875 -4.96875 L 4.1875 -4.5 L 3.609375 -4.5 L 5.09375 -0.46875 L 5.6875 -0.46875 L 5.6875 0 L 3.671875 0 L 3.671875 -0.46875 L 4.328125 -0.46875 L 3.828125 -1.90625 L 2.03125 -1.90625 L 1.546875 -0.46875 L 2.203125 -0.46875 L 2.203125 0 Z M 2.171875 -2.375 L 3.6875 -2.375 L 2.96875 -4.484375 L 2.921875 -4.484375 Z M 4.40625 -6.265625 L 3.984375 -6.265625 L 3.375 -7.265625 L 4.03125 -7.265625 Z M 1.90625 -5.453125 L 2.640625 -6.578125 L 3.328125 -6.578125 L 4.0625 -5.453125 L 3.5625 -5.453125 L 2.984375 -6.296875 L 2.40625 -5.453125 Z M 1.90625 -5.453125 "/></g></g><g style="fill:#f26a23;fill-opacity:1;"><g transform="translate(73.434915, 28.08984)"><path style="stroke:none" d="M 2.96875 0.09375 C 2.257812 0.09375 1.738281 -0.078125 1.40625 -0.421875 C 1.070312 -0.765625 0.90625 -1.222656 0.90625 -1.796875 L 0.90625 -4.5 L 0.234375 -4.5 L 0.234375 -4.96875 L 2.28125 -4.96875 L 2.28125 -4.5 L 1.609375 -4.5 L 1.609375 -1.703125 C 1.609375 -1.304688 1.726562 -0.992188 1.96875 -0.765625 C 2.21875 -0.546875 2.554688 -0.4375 2.984375 -0.4375 C 3.453125 -0.4375 3.8125 -0.546875 4.0625 -0.765625 C 4.320312 -0.992188 4.453125 -1.304688 4.453125 -1.703125 L 4.453125 -4.5 L 3.796875 -4.5 L 3.796875 -4.96875 L 5.734375 -4.96875 L 5.734375 -4.5 L 5.0625 -4.5 L 5.0625 -1.734375 C 5.0625 -1.140625 4.867188 -0.6875 4.484375 -0.375 C 4.109375 -0.0625 3.601562 0.09375 2.96875 0.09375 Z M 2.96875 0.09375 "/></g></g><g style="fill:#f26a23;fill-opacity:1;"><g transform="translate(79.339319, 28.08984)"><path style="stroke:none" d=""/></g></g><g style="fill:#f26a23;fill-opacity:1;"><g transform="translate(82.02714, 28.08984)"><path style="stroke:none" d="M 5.625 -2.5 L 5.625 -2.234375 C 5.625 -1.515625 5.40625 -0.945312 4.96875 -0.53125 C 4.539062 -0.113281 3.929688 0.09375 3.140625 0.09375 C 2.578125 0.09375 2.085938 -0.015625 1.671875 -0.234375 C 1.265625 -0.453125 0.953125 -0.753906 0.734375 -1.140625 C 0.523438 -1.535156 0.421875 -1.988281 0.421875 -2.5 C 0.421875 -3 0.535156 -3.441406 0.765625 -3.828125 C 0.992188 -4.222656 1.3125 -4.523438 1.71875 -4.734375 C 2.125 -4.941406 2.59375 -5.046875 3.125 -5.046875 C 3.488281 -5.046875 3.8125 -4.984375 4.09375 -4.859375 C 4.382812 -4.734375 4.628906 -4.554688 4.828125 -4.328125 L 4.828125 -4.96875 L 5.390625 -4.96875 L 5.390625 -3.421875 L 4.875 -3.421875 C 4.71875 -3.773438 4.488281 -4.046875 4.1875 -4.234375 C 3.894531 -4.429688 3.546875 -4.53125 3.140625 -4.53125 C 2.546875 -4.53125 2.070312 -4.347656 1.71875 -3.984375 C 1.375 -3.628906 1.203125 -3.144531 1.203125 -2.53125 C 1.203125 -1.882812 1.375 -1.375 1.71875 -1 C 2.070312 -0.625 2.550781 -0.4375 3.15625 -0.4375 C 3.675781 -0.445312 4.097656 -0.582031 4.421875 -0.84375 C 4.742188 -1.101562 4.910156 -1.492188 4.921875 -2.015625 L 3.875 -2.015625 L 3.875 -2.5 Z M 5.625 -2.5 "/></g></g><g style="fill:#f26a23;fill-opacity:1;"><g transform="translate(88.054918, 28.08984)"><path style="stroke:none" d="M 0.4375 0 L 0.4375 -0.46875 L 1.125 -0.46875 L 1.125 -4.5 L 0.4375 -4.5 L 0.4375 -4.96875 L 2.546875 -4.96875 L 2.546875 -4.5 L 1.84375 -4.5 L 1.84375 -0.46875 L 2.546875 -0.46875 L 2.546875 0 Z M 0.4375 0 "/></g></g><g style="fill:#f26a23;fill-opacity:1;"><g transform="translate(91.042368, 28.08984)"><path style="stroke:none" d="M 0.25 0 L 0.25 -0.46875 L 0.875 -0.46875 L 2.3125 -4.5 L 1.765625 -4.5 L 1.765625 -4.96875 L 4.1875 -4.96875 L 4.1875 -4.5 L 3.609375 -4.5 L 5.09375 -0.46875 L 5.6875 -0.46875 L 5.6875 0 L 3.671875 0 L 3.671875 -0.46875 L 4.328125 -0.46875 L 3.828125 -1.90625 L 2.03125 -1.90625 L 1.546875 -0.46875 L 2.203125 -0.46875 L 2.203125 0 Z M 2.171875 -2.375 L 3.6875 -2.375 L 2.96875 -4.484375 L 2.921875 -4.484375 Z M 1.90625 -5.453125 L 2.640625 -6.84375 L 3.328125 -6.84375 L 4.0625 -5.453125 L 3.5625 -5.453125 L 2.984375 -6.5625 L 2.40625 -5.453125 Z M 1.90625 -5.453125 "/></g></g><g style="fill:#f26a23;fill-opacity:1;"><g transform="translate(96.990832, 28.08984)"><path style="stroke:none" d="M 1.71875 0 L 1.71875 -0.46875 L 2.4375 -0.46875 L 2.4375 -2.125 L 0.78125 -4.5 L 0.125 -4.5 L 0.125 -4.96875 L 2.1875 -4.96875 L 2.1875 -4.5 L 1.5625 -4.5 L 2.859375 -2.59375 L 4.125 -4.5 L 3.484375 -4.5 L 3.484375 -4.96875 L 5.453125 -4.96875 L 5.453125 -4.5 L 4.765625 -4.5 L 3.15625 -2.125 L 3.15625 -0.46875 L 3.890625 -0.46875 L 3.890625 0 Z M 1.71875 0 "/></g></g><g style="fill:#f26a23;fill-opacity:1;"><g transform="translate(102.560366, 28.08984)"><path style="stroke:none" d=""/></g></g><g style="fill:#f26a23;fill-opacity:1;"><g transform="translate(105.248188, 28.08984)"><path style="stroke:none" d="M 0.46875 -1.8125 L 0.46875 -2.3125 L 2.578125 -2.3125 L 2.578125 -1.8125 Z M 0.46875 -1.8125 "/></g></g></g></svg>