<svg width="23" height="22" viewBox="0 0 23 22" fill="none" xmlns="http://www.w3.org/2000/svg">
<path d="M11.5 0.394287C5.30425 0.394287 0.5 4.72804 0.5 10.579C0.5 13.6397 1.8145 16.2856 3.954 18.1126C4.13275 18.2648 4.24275 18.48 4.24825 18.711L4.30875 20.58C4.31316 20.7175 4.35288 20.8519 4.42443 20.9713C4.49599 21.0907 4.59718 21.1916 4.71911 21.2649C4.84105 21.3383 4.97999 21.3819 5.12374 21.392C5.26748 21.4021 5.41163 21.3784 5.5435 21.3228L7.727 20.4041C7.91125 20.3254 8.12025 20.3122 8.3155 20.3621C9.31925 20.6246 10.3863 20.7664 11.5 20.7664C17.6958 20.7664 22.5 16.4326 22.5 10.5816C22.5 4.73067 17.6958 0.394287 11.5 0.394287Z" fill="white"/>
<path d="M4.8945 13.5583L8.12575 8.66543C8.2473 8.48122 8.40755 8.32306 8.59637 8.20095C8.78519 8.07883 8.99849 7.9954 9.22279 7.95594C9.44709 7.91647 9.67753 7.92182 9.89955 7.97165C10.1216 8.02148 10.3304 8.11471 10.5127 8.24545L13.084 10.0855C13.1988 10.1676 13.3384 10.2117 13.4818 10.2112C13.6252 10.2107 13.7646 10.1657 13.8787 10.0829L17.3493 7.56821C17.8113 7.23222 18.4162 7.76246 18.1082 8.23232L14.8742 13.1226C14.7527 13.3068 14.5924 13.4649 14.4036 13.5871C14.2148 13.7092 14.0015 13.7926 13.7772 13.8321C13.5529 13.8715 13.3225 13.8662 13.1004 13.8163C12.8784 13.7665 12.6696 13.6733 12.4872 13.5426L9.916 11.7025C9.80121 11.6204 9.66156 11.5763 9.51816 11.5768C9.37477 11.5773 9.23544 11.6223 9.12125 11.7051L5.65075 14.2198C5.18875 14.5558 4.58375 14.0282 4.8945 13.5583Z" fill="#326768"/>
</svg>
